<svg width="50" height="50" viewBox="0 0 50 50" fill="none" xmlns="http://www.w3.org/2000/svg">
<rect x="1" y="1" width="48" height="48" rx="24" stroke="black" stroke-width="2"/>
<path fill-rule="evenodd" clip-rule="evenodd" d="M26.2121 14.9621C26.5782 14.596 27.1718 14.596 27.5379 14.9621L36.9129 24.3371C37.279 24.7032 37.279 25.2968 36.9129 25.6629L27.5379 35.0379C27.1718 35.404 26.5782 35.404 26.2121 35.0379C25.846 34.6718 25.846 34.0782 26.2121 33.7121L33.9867 25.9375H13.75C13.2322 25.9375 12.8125 25.5178 12.8125 25C12.8125 24.4822 13.2322 24.0625 13.75 24.0625H33.9867L26.2121 16.2879C25.846 15.9218 25.846 15.3282 26.2121 14.9621Z" fill="black"/>
</svg>
