<svg width="50" height="50" viewBox="0 0 50 50" fill="none" xmlns="http://www.w3.org/2000/svg">
<rect x="-1" y="1" width="48" height="48" rx="24" transform="matrix(-1 0 0 1 48 0)" stroke="black" stroke-width="2"/>
<path fill-rule="evenodd" clip-rule="evenodd" d="M23.7879 14.9621C23.4218 14.596 22.8282 14.596 22.4621 14.9621L13.0871 24.3371C12.721 24.7032 12.721 25.2968 13.0871 25.6629L22.4621 35.0379C22.8282 35.404 23.4218 35.404 23.7879 35.0379C24.154 34.6718 24.154 34.0782 23.7879 33.7121L16.0133 25.9375H36.25C36.7678 25.9375 37.1875 25.5178 37.1875 25C37.1875 24.4822 36.7678 24.0625 36.25 24.0625H16.0133L23.7879 16.2879C24.154 15.9218 24.154 15.3282 23.7879 14.9621Z" fill="black"/>
</svg>
